<svg width="115" height="24" viewBox="0 0 115 24" fill="none" xmlns="http://www.w3.org/2000/svg">
<path d="M0 5.27121H4.31629V10.3519H5.65583L8.13026 5.27121H12.4279V6.08484L9.4884 11.4367L12.8558 16.8971V17.7107H8.3349L5.58141 12.7747H4.31629V17.7107H0V5.27121Z" fill="#22262A"/>
<path d="M20.0403 18C18.7008 18 17.5101 17.7228 16.4682 17.1683C15.4388 16.6138 14.6325 15.8484 14.0496 14.872C13.4791 13.8836 13.1938 12.7626 13.1938 11.509C13.1938 10.2434 13.4791 9.11637 14.0496 8.12796C14.6325 7.13955 15.4388 6.37413 16.4682 5.83171C17.5101 5.27724 18.7008 5 20.0403 5C21.3799 5 22.5644 5.27724 23.5938 5.83171C24.6357 6.37413 25.4419 7.13955 26.0124 8.12796C26.5954 9.10431 26.8868 10.2313 26.8868 11.509C26.8868 12.7626 26.5954 13.8836 26.0124 14.872C25.4419 15.8484 24.6357 16.6138 23.5938 17.1683C22.5519 17.7228 21.3675 18 20.0403 18ZM20.0403 14.7093C20.8217 14.7093 21.4605 14.414 21.9566 13.8234C22.4651 13.2327 22.7194 12.4553 22.7194 11.491C22.7194 10.8521 22.6016 10.2856 22.3659 9.79138C22.1426 9.28512 21.8264 8.89337 21.4171 8.61613C21.0078 8.32684 20.5426 8.1822 20.0217 8.1822C19.5132 8.1822 19.0543 8.32684 18.645 8.61613C18.2357 8.89337 17.9194 9.28512 17.6961 9.79138C17.4729 10.2856 17.3612 10.8521 17.3612 11.491C17.3612 12.4553 17.6093 13.2327 18.1054 13.8234C18.6016 14.414 19.2465 14.7093 20.0403 14.7093Z" fill="#22262A"/>
<path d="M30.2975 8.01947H27.637V5.27121H37.2928V8.01947H34.6324V17.7107H30.2975V8.01947Z" fill="#22262A"/>
<path d="M39.0444 5.27121H48.0305V8.01947H43.5654V10.2796H47.6398V12.5577H43.5654V14.9624H48.0305V17.7107H39.0444V5.27121Z" fill="#22262A"/>
<path d="M50.1091 5.27121H54.1278V14.9624H58.5743V17.7107H50.1091V5.27121Z" fill="#22262A"/>
<path d="M66.007 18C64.6675 18 63.4768 17.7228 62.4349 17.1683C61.4054 16.6138 60.5992 15.8484 60.0163 14.872C59.4458 13.8836 59.1605 12.7626 59.1605 11.509C59.1605 10.2434 59.4458 9.11637 60.0163 8.12796C60.5992 7.13955 61.4054 6.37413 62.4349 5.83171C63.4768 5.27724 64.6675 5 66.007 5C67.3465 5 68.531 5.27724 69.5605 5.83171C70.6024 6.37413 71.4086 7.13955 71.9791 8.12796C72.5621 9.10431 72.8535 10.2313 72.8535 11.509C72.8535 12.7626 72.5621 13.8836 71.9791 14.872C71.4086 15.8484 70.6024 16.6138 69.5605 17.1683C68.5186 17.7228 67.3341 18 66.007 18ZM66.007 14.7093C66.7884 14.7093 67.4272 14.414 67.9233 13.8234C68.4318 13.2327 68.6861 12.4553 68.6861 11.491C68.6861 10.8521 68.5683 10.2856 68.3326 9.79138C68.1093 9.28512 67.7931 8.89337 67.3838 8.61613C66.9745 8.32684 66.5093 8.1822 65.9884 8.1822C65.4799 8.1822 65.021 8.32684 64.6117 8.61613C64.2023 8.89337 63.8861 9.28512 63.6628 9.79138C63.4396 10.2856 63.3279 10.8521 63.3279 11.491C63.3279 12.4553 63.576 13.2327 64.0721 13.8234C64.5682 14.414 65.2132 14.7093 66.007 14.7093Z" fill="#22262A"/>
<path d="M73.2467 5.27121H77.4514L79.4235 13.0278L81.3956 5.27121H85.7863L81.7863 17.7107H77.0421L73.2467 5.27121Z" fill="#22262A"/>
<path d="M97.726 12.8004H93.0481L92.0046 18H89.3958L91.9147 5.44175H94.5235L93.5159 10.4974H98.1938L99.2013 5.44175H101.81L99.2913 18H96.6825L97.726 12.8004ZM104.602 18H101.994L104.512 5.44175H109.406C110.606 5.44175 111.535 5.72362 112.195 6.28736C112.867 6.8511 113.202 7.64874 113.202 8.68027C113.202 9.14805 113.136 9.60984 113.005 10.0656C112.873 10.5094 112.675 10.9292 112.411 11.3251C112.147 11.7089 111.823 12.0507 111.439 12.3506C111.067 12.6385 110.63 12.8663 110.126 13.0343L111.637 18H108.848L107.607 13.3401H105.538L104.602 18ZM108.669 11.1092C109.076 11.1092 109.424 11.0012 109.712 10.7853C110.012 10.5694 110.21 10.2396 110.306 9.79576C110.366 9.51988 110.414 9.29798 110.45 9.13006C110.486 8.95014 110.504 8.81221 110.504 8.71625C110.504 8.44038 110.408 8.21248 110.216 8.03256C110.036 7.84065 109.748 7.74469 109.352 7.74469H106.653L105.988 11.1092H108.669Z" fill="#22262A"/>
</svg>
